<svg width="365" height="258" viewBox="0 0 365 258" fill="none" xmlns="http://www.w3.org/2000/svg">
<path d="M182.663 234.852C282.88 234.852 364.122 182.502 364.122 117.926C364.122 53.3495 282.88 1 182.663 1C82.446 1 1.2041 53.3495 1.2041 117.926C1.2041 182.502 82.446 234.852 182.663 234.852Z" stroke="#E3E3E3" stroke-miterlimit="10"/>
<path d="M208.17 213.719C208.192 213.455 208.57 213.437 208.618 213.698L211.896 231.494C211.915 231.595 212 231.671 212.103 231.679L230.711 233.079C230.978 233.099 230.997 233.483 230.734 233.528L212.357 236.682C212.256 236.7 212.179 236.784 212.171 236.886L210.716 254.907C210.694 255.17 210.316 255.188 210.268 254.928L206.99 237.132C206.971 237.031 206.886 236.954 206.783 236.947L188.175 235.546C187.908 235.526 187.889 235.143 188.152 235.098L206.529 231.944C206.63 231.926 206.707 231.842 206.715 231.74L208.17 213.719Z" fill="#E3E3E3"/>
</svg>
