<svg width="365" height="244" viewBox="0 0 365 244" fill="none" xmlns="http://www.w3.org/2000/svg">
<path d="M182.663 242.852C282.88 242.852 364.122 190.502 364.122 125.926C364.122 61.3495 282.88 9 182.663 9C82.446 9 1.2041 61.3495 1.2041 125.926C1.2041 190.502 82.446 242.852 182.663 242.852Z" stroke="#E3E3E3" stroke-miterlimit="10"/>
<path d="M75.3148 10.2792C75.2448 10.0229 75.5973 9.87663 75.7294 10.1071L84.6949 25.755C84.7461 25.8444 84.8513 25.8879 84.9508 25.8608L102.348 21.1109C102.605 21.0409 102.751 21.3934 102.52 21.5255L86.8725 30.491C86.7831 30.5422 86.7396 30.6474 86.7667 30.7469L91.5166 48.1444C91.5866 48.4007 91.2341 48.5469 91.102 48.3165L82.1365 32.6686C82.0853 32.5792 81.9801 32.5357 81.8806 32.5628L64.4831 37.3127C64.2268 37.3826 64.0805 37.0302 64.311 36.8981L79.9589 27.9326C80.0483 27.8814 80.0918 27.7762 80.0647 27.6767L75.3148 10.2792Z" fill="#E3E3E3"/>
</svg>
