<svg width="365" height="236" viewBox="0 0 365 236" fill="none" xmlns="http://www.w3.org/2000/svg">
<path d="M182.459 235.169C282.676 235.169 363.918 182.819 363.918 118.243C363.918 53.6666 282.676 1.31714 182.459 1.31714C82.2419 1.31714 1 53.6666 1 118.243C1 182.819 82.2419 235.169 182.459 235.169Z" stroke="#E3E3E3" stroke-miterlimit="10"/>
<path d="M327.834 47.3137C328.03 47.4928 327.811 47.805 327.576 47.681L311.628 39.2601C311.537 39.212 311.425 39.2316 311.356 39.3077L299.201 52.6304C299.022 52.8267 298.709 52.6072 298.834 52.3723L307.254 36.4247C307.302 36.3336 307.283 36.2214 307.207 36.1519L293.884 23.9971C293.688 23.818 293.907 23.5058 294.142 23.6298L310.09 32.0507C310.181 32.0988 310.293 32.0793 310.363 32.0031L322.517 18.6804C322.696 18.4842 323.009 18.7036 322.885 18.9385L314.464 34.8861C314.416 34.9772 314.435 35.0894 314.511 35.1589L327.834 47.3137Z" fill="#E3E3E3"/>
</svg>
