<svg width="1124" height="1124" viewBox="0 0 1124 1124" fill="none" xmlns="http://www.w3.org/2000/svg">
<path d="M209.459 550.419C219.582 626.956 248.317 699.179 287.094 765.577C328.19 835.947 378.879 901.116 435.852 959.315C494.316 1019.04 560.006 1071.29 630.983 1115.38C632.569 1116.36 634.171 1117.32 635.763 1118.3L660.196 1087.02C609.749 1055.43 562.204 1019.38 517.799 979.131C458.426 925.319 404.922 864.524 359.997 798.13C317.282 735.005 281.429 666.188 262.432 592.036C253.795 558.325 249.121 525.312 248.647 489.973C248.413 472.489 249.298 454.984 251.407 437.624C252.443 429.09 253.776 420.591 255.417 412.152C256.123 408.521 257.269 403.122 257.85 400.67C257.846 400.687 258.622 397.548 258.936 396.319C259.601 393.711 260.299 391.112 261.025 388.52C265.44 372.781 271.038 357.38 277.734 342.469C281.145 334.874 284.838 327.407 288.797 320.083C289.755 318.31 290.729 316.545 291.718 314.789C292.189 313.954 292.666 313.123 293.14 312.289C293.178 312.227 293.21 312.175 293.258 312.098C295.497 308.447 297.686 304.771 299.999 301.166C308.716 287.583 318.355 274.591 328.77 262.263C331.381 259.172 334.04 256.122 336.746 253.114C337.846 251.892 338.961 250.683 340.073 249.474C338.789 250.889 342.384 247.034 343.166 246.225C348.995 240.204 355.014 234.367 361.203 228.718C367.225 223.221 373.411 217.904 379.743 212.767C382.917 210.193 386.128 207.665 389.374 205.181C390.795 204.094 392.225 203.016 393.66 201.946C393.843 201.809 394.221 201.531 394.59 201.26C395.164 200.846 395.799 200.388 396.005 200.24C409.783 190.381 424.127 181.317 438.93 173.078C442.302 171.201 445.7 169.366 449.119 167.575C450.734 166.729 452.358 165.902 453.981 165.069C454.941 164.6 455.899 164.126 456.861 163.659C464.281 160.067 471.798 156.674 479.401 153.485C487.241 150.196 495.17 147.122 503.179 144.268C506.817 142.972 510.471 141.72 514.14 140.515C514.955 140.247 515.772 139.986 516.587 139.72C518.539 139.165 520.473 138.527 522.419 137.956C538.423 133.26 554.685 129.431 571.111 126.534C575.201 125.812 579.301 125.15 583.408 124.54C584.805 124.333 591.172 123.212 585.955 124.164C588.334 123.73 590.795 123.543 593.196 123.26C601.768 122.25 610.365 121.457 618.977 120.876C627.851 120.276 636.74 119.903 645.633 119.747L610.796 92.5349C596.432 94.0266 582.124 96.0799 567.914 98.7388C498.372 111.75 430.627 140.431 373.287 181.93C315.97 223.414 267.603 276.989 237.855 341.634C207.984 406.553 200.142 479.968 209.459 550.419ZM515.994 139.899C515.898 139.928 515.816 139.953 515.771 139.965C515.846 139.944 515.919 139.919 515.994 139.899Z" fill="#E3E3E3"/>
<path d="M311.296 561.894C322.276 625.497 349.529 685.193 383.558 739.633C420.169 798.205 463.995 852.432 512.936 901.137C562.662 950.626 617.908 994.213 677.252 1031.6C683.122 1035.29 689.044 1038.91 694.996 1042.47L719.358 1011.28C672.845 982.784 629.004 950.119 588.004 913.574C537.48 868.538 491.802 818.028 452.309 763.053C415.336 711.586 383.31 654.701 364.636 593.604C355.983 565.291 350.744 538.322 349.012 509.134C348.155 494.693 348.223 480.194 349.345 465.77C349.901 458.617 350.715 451.483 351.804 444.391C352.368 440.725 353.004 437.07 353.714 433.429C354.019 431.87 354.337 430.314 354.669 428.761C354.835 427.985 355.006 427.21 355.178 426.435C355.302 425.877 355.291 425.894 355.273 425.957C355.303 425.845 355.378 425.553 355.549 424.865C358.858 411.642 363.094 398.695 368.433 386.147C371.05 379.998 373.91 373.954 376.998 368.028C378.481 365.183 380.026 362.37 381.602 359.577C381.721 359.367 381.812 359.205 381.889 359.067C381.986 358.912 382.134 358.672 382.348 358.318C383.373 356.633 384.393 354.947 385.444 353.278C392.542 342.005 400.482 331.269 409.124 321.132C411.21 318.685 413.339 316.273 415.506 313.898C415.681 313.705 416.139 313.206 416.506 312.806C416.56 312.749 416.607 312.7 416.636 312.669C417.841 311.419 419.045 310.168 420.266 308.934C424.987 304.158 429.867 299.539 434.892 295.083C440.129 290.44 445.521 285.972 451.055 281.687C452.244 280.765 453.44 279.852 454.641 278.947C455.04 278.646 455.441 278.348 455.841 278.051C458.651 276.072 461.447 274.079 464.298 272.158C475.64 264.516 487.448 257.569 499.616 251.328C499.782 251.243 499.93 251.167 500.066 251.096C500.165 251.049 500.274 250.997 500.397 250.937C501.776 250.274 503.15 249.603 504.532 248.95C507.763 247.422 511.018 245.943 514.292 244.512C520.626 241.745 527.039 239.162 533.52 236.76C536.648 235.602 539.79 234.485 542.949 233.412C544.652 232.834 546.359 232.269 548.069 231.717C548.36 231.623 548.653 231.533 548.945 231.443C548.952 231.441 548.957 231.439 548.965 231.437C555.637 229.48 562.32 227.601 569.079 225.967C575.845 224.331 582.656 222.885 589.504 221.637C593.057 220.989 596.621 220.393 600.191 219.851C600.534 219.799 600.877 219.749 601.219 219.699C603.136 219.608 605.135 219.168 607.027 218.946C621.331 217.265 635.722 216.326 650.123 216.084C657.335 215.963 664.549 216.016 671.759 216.236C673.63 216.293 675.502 216.368 677.373 216.44C677.738 216.453 677.987 216.463 678.184 216.469C678.346 216.479 678.542 216.491 678.778 216.504C682.524 216.724 686.269 216.968 690.01 217.265C704.504 218.414 718.946 220.211 733.291 222.583C747.751 224.974 762.113 227.958 776.344 231.466C780.052 232.38 783.752 233.33 787.442 234.314C789.026 234.737 790.608 235.166 792.189 235.601C792.979 235.819 793.769 236.039 794.56 236.26C794.702 236.3 794.815 236.331 794.913 236.358C794.914 236.359 794.915 236.359 794.916 236.36L735.57 190.003C694.434 184.732 652.634 184.235 611.615 189.81C551.183 198.025 492.068 219.255 441.574 253.774C393.149 286.879 352.227 331.267 328.48 385.341C304.062 440.946 301.071 502.653 311.296 561.894ZM549.221 231.354C549.574 231.244 549.926 231.133 550.272 231.009C549.992 231.11 549.607 231.234 549.221 231.354ZM548.871 231.463C547.799 231.793 546.997 232.014 548.871 231.463V231.463Z" fill="#E3E3E3"/>
<path d="M542.37 345.634C540.902 346.417 539.17 347.415 542.37 345.634V345.634Z" fill="#E3E3E3"/>
<path d="M475.839 406.355C476.546 405.218 476.693 404.966 476.601 405.103C476.358 405.503 476.115 405.903 475.869 406.301C475.859 406.32 475.849 406.337 475.839 406.355Z" fill="#E3E3E3"/>
<path d="M426.445 576.112C442.53 628.199 471.158 675.6 503.179 719.343C569.878 810.459 654.561 888.721 749.163 950.173C753.13 952.751 757.118 955.294 761.115 957.822L785.602 926.473C703.8 873.523 629.606 807.164 567.888 731.513C535.075 691.292 505.276 648.223 483.926 600.711C464.454 557.378 452.122 511.439 457.321 464.021C457.865 459.058 458.611 454.115 459.578 449.216C459.803 448.075 460.048 446.936 460.3 445.8C460.436 445.293 460.945 443.216 460.975 443.101C461.71 440.316 462.52 437.551 463.407 434.812C466.609 424.923 470.863 415.535 475.812 406.408C475.82 406.393 475.831 406.373 475.841 406.356C475.784 406.448 475.732 406.532 475.668 406.635C475.736 406.525 475.803 406.413 475.871 406.303C476.091 405.914 476.499 405.263 476.603 405.104C477.016 404.423 477.429 403.743 477.855 403.07C479.095 401.107 480.377 399.171 481.699 397.264C484.744 392.876 488.006 388.639 491.459 384.566C492.955 382.802 494.454 380.988 496.071 379.325C497.046 378.371 498.555 376.889 498.994 376.46C502.691 372.842 506.546 369.386 510.536 366.094C512.731 364.283 514.986 362.553 517.238 360.815C517.584 360.548 517.814 360.326 517.951 360.157C518.616 359.751 519.302 359.38 519.738 359.081C524.108 356.081 528.598 353.255 533.187 350.602C535.717 349.139 538.277 347.728 540.864 346.369C541.729 345.915 542.623 345.495 543.473 345.02C543.051 345.256 542.689 345.458 542.369 345.636C542.768 345.423 543.147 345.225 543.4 345.105C548.331 342.759 553.348 340.593 558.432 338.599C561.002 337.592 563.59 336.63 566.193 335.712C567.798 335.146 576.653 332.559 569.831 334.409C575.266 332.935 580.635 331.268 586.118 329.962C591.67 328.639 597.265 327.497 602.89 326.532C604.964 326.176 607.062 325.757 609.159 325.486C609.677 325.442 610.267 325.388 610.643 325.342C612.48 325.117 614.318 324.91 616.159 324.722C627.718 323.542 639.34 323.112 650.956 323.254C653.569 323.287 656.182 323.348 658.793 323.437C659.853 323.473 660.911 323.521 661.971 323.567C662.54 323.6 663.537 323.653 664.01 323.683C670.086 324.062 676.154 324.588 682.206 325.253C705.971 327.864 729.482 332.588 752.539 338.875C753.258 339.071 753.975 339.271 754.692 339.469C754.433 339.404 757.758 340.347 757.876 340.382C760.553 341.166 763.226 341.971 765.891 342.796C772.062 344.707 778.199 346.725 784.303 348.841C796.115 352.938 807.798 357.405 819.347 362.197C842.546 371.823 865.197 382.749 887.287 394.696C960.074 434.06 1025.96 484.489 1089.02 538.031L1114.65 505.221C1061.17 460.555 1005.63 418.488 945.519 382.959C858.305 331.412 758.143 292.052 655.47 293.117C562.185 294.085 455.617 339.728 423.178 434.025C407.339 480.067 412.301 530.311 426.445 576.112Z" fill="#E3E3E3"/>
<path d="M571.341 461.725C572.231 460.367 572.322 460.174 572.145 460.416C571.897 460.815 571.648 461.212 571.399 461.611C571.38 461.649 571.36 461.686 571.341 461.725Z" fill="#E3E3E3"/>
<path d="M540.92 600.736C560.082 641.383 587.221 678.239 616.102 712.46C673.398 780.35 740.46 840.232 813.62 890.604L838.418 858.858C780.702 817.911 726.826 770.435 679.003 718.334C650.094 686.84 622.57 653.53 600.478 616.942C589.892 599.412 580.509 581.093 573.35 561.885C566.909 544.606 562.555 528.171 561.56 511.052C561.074 502.693 561.349 494.274 562.705 486.004C562.944 484.549 563.222 483.098 563.532 481.655C563.563 481.683 564.308 478.817 564.515 478.131C565.694 474.218 567.142 470.387 568.856 466.676C569.632 464.995 570.495 463.37 571.341 461.724C571.254 461.857 571.164 461.993 571.06 462.15C571.177 461.973 571.287 461.79 571.399 461.61C571.405 461.6 571.41 461.59 571.415 461.579C571.607 461.204 571.982 460.635 572.143 460.415C572.226 460.283 572.307 460.148 572.39 460.017C574.43 456.852 576.678 453.82 579.108 450.944C579.552 450.418 580.01 449.906 580.461 449.386C581.829 448.147 583.096 446.786 584.471 445.548C585.737 444.408 587.035 443.301 588.358 442.229C588.945 441.754 589.544 441.296 590.135 440.827C593.253 438.778 596.353 436.76 599.62 434.951C600.148 434.658 600.682 434.376 601.216 434.091C602.963 433.281 604.708 432.472 606.486 431.726C610.167 430.182 613.951 428.996 617.678 427.588C611.369 429.971 617.111 427.807 618.851 427.334C621.21 426.693 623.583 426.108 625.968 425.575C630.183 424.632 634.779 423.375 639.112 423.153C638.156 423.236 634.781 423.668 638.366 423.291C639.395 423.182 640.421 423.055 641.45 422.949C644.054 422.682 646.664 422.468 649.276 422.301C653.822 422.013 658.378 421.88 662.933 421.884C665.399 421.886 667.859 421.967 670.324 422.012C670.547 422.016 670.962 422.033 671.34 422.05C672.387 422.113 673.434 422.176 674.479 422.253C692.864 423.592 711.098 426.812 728.982 431.228C731.07 431.744 733.156 432.277 735.236 432.826C736.282 433.102 737.327 433.382 738.372 433.666C738.171 433.611 740.456 434.253 741.252 434.472C741.851 434.647 742.564 434.855 742.737 434.906C744.053 435.293 745.368 435.687 746.68 436.087C749.324 436.892 751.96 437.722 754.589 438.574C763.693 441.526 772.709 444.753 781.634 448.209C820.864 463.397 858.396 482.867 894.301 504.724C943.402 534.616 990.072 569.829 1035.26 606.855L1060.72 574.258C1024.62 545.202 987.52 517.44 948.559 492.225C877.978 446.549 798.683 405.896 714.386 394.475C673.803 388.977 630.325 391.096 592.589 408.348C557.474 424.401 529.27 451.728 520.812 490.3C512.701 527.29 525.224 567.44 540.92 600.736Z" fill="#E3E3E3"/>
<path d="M662.614 510.76C664.307 510.443 665.011 510.268 665.136 510.205C664.319 510.394 663.504 510.567 662.696 510.729C662.668 510.739 662.642 510.75 662.614 510.76Z" fill="#E3E3E3"/>
<path d="M647.552 615.13C666.504 642.305 688.936 666.984 712.139 690.56C759.709 738.897 811.824 782.859 867.073 822.172L892.057 790.187C850.494 759.809 810.858 726.765 773.628 691.222C750.282 668.935 727.643 645.741 707.037 620.875C688.799 598.868 671.105 574.933 661.211 547.855C660.259 545.25 659.394 542.611 658.646 539.939C658.292 538.675 657.964 537.402 657.668 536.123C657.528 535.515 657.09 532.889 657.02 532.697C656.544 527.982 657.097 523.611 657.136 518.902C657.136 518.899 657.136 518.898 657.136 518.894C657.21 518.629 657.283 518.364 657.367 518.101C657.678 517.128 658.034 516.167 658.436 515.228C658.478 515.131 658.706 514.621 658.961 514.07C659.315 513.644 659.607 513.092 659.933 512.663C659.947 512.646 659.966 512.621 659.983 512.6C660.302 512.302 660.737 511.881 661.1 511.53C661.435 511.345 661.825 511.129 662.18 510.929C662.225 510.91 662.273 510.889 662.311 510.874C662.408 510.834 662.511 510.798 662.614 510.762C662.55 510.774 662.476 510.787 662.409 510.8C662.421 510.793 662.432 510.787 662.443 510.781C662.527 510.765 662.612 510.748 662.697 510.731C663.899 510.319 665.35 510.102 665.137 510.207C666.446 509.905 667.75 509.58 669.009 509.261C670.32 509.139 671.628 509.026 672.942 508.95C676.125 508.769 679.293 508.809 682.475 508.856C682.999 508.894 683.522 508.93 684.046 508.974C685.617 509.103 687.186 509.26 688.752 509.441C692.586 509.884 696.402 510.474 700.195 511.183C703.639 511.826 707.063 512.571 710.468 513.399C712.047 513.784 713.62 514.187 715.19 514.605C715.52 514.693 715.851 514.783 716.18 514.873C715.946 514.809 716.172 514.868 716.596 514.986C716.829 515.049 717.062 515.112 717.296 515.175C717.054 515.111 716.863 515.059 716.699 515.015C717.055 515.113 717.518 515.244 717.967 515.377C774.925 532.226 828.179 563.94 876.616 596.901C912.788 621.516 947.462 648.207 981.469 675.727L1006.94 643.123C981.074 622.469 954.78 602.369 927.682 583.34C875.024 546.363 818.345 510.726 756.79 490.643C727.9 481.217 695.887 474.235 665.685 481.582C639.331 487.993 613.103 506.804 613.639 536.509C614.156 565.309 631.671 592.358 647.552 615.13ZM659.209 513.54C659.473 512.985 659.712 512.513 659.751 512.53C659.79 512.546 659.786 512.603 659.753 512.686C659.505 512.981 659.499 513.021 659.64 512.905C659.532 513.087 659.377 513.311 659.209 513.54ZM662.002 510.873C661.915 510.888 661.831 510.904 661.74 510.92C661.741 510.919 661.743 510.918 661.745 510.916C661.839 510.898 661.933 510.878 662.027 510.86C662.018 510.865 662.009 510.869 662.002 510.873Z" fill="#E3E3E3"/>
<path d="M716.178 514.869C716.271 514.895 716.443 514.941 716.697 515.01C716.661 515.001 716.629 514.991 716.594 514.982C716.456 514.944 716.317 514.908 716.178 514.869Z" fill="#E3E3E3"/>
</svg>
