<svg width="103" height="23" viewBox="0 0 103 23" fill="none" xmlns="http://www.w3.org/2000/svg">
<path d="M11.4024 22.384C9.65304 22.384 8.04238 21.9787 6.57038 21.168C5.09838 20.3573 3.91438 19.1627 3.01838 17.584C2.14371 15.984 1.70638 14.0213 1.70638 11.696C1.70638 9.392 2.15438 7.42933 3.05038 5.808C3.96771 4.16533 5.17304 2.91733 6.66638 2.064C8.18104 1.18933 9.81304 0.751999 11.5624 0.751999C12.9064 0.751999 14.1117 1.02933 15.1784 1.584C16.245 2.11733 17.1304 2.74667 17.8344 3.472L15.3384 6.48C14.805 5.98933 14.2397 5.59467 13.6424 5.296C13.0664 4.976 12.405 4.816 11.6584 4.816C10.7197 4.816 9.85571 5.08267 9.06638 5.616C8.29838 6.14933 7.67971 6.91733 7.21038 7.92C6.76238 8.92267 6.53838 10.128 6.53838 11.536C6.53838 13.6693 6.99704 15.3333 7.91438 16.528C8.83171 17.7227 10.0584 18.32 11.5944 18.32C12.4477 18.32 13.205 18.128 13.8664 17.744C14.549 17.36 15.1464 16.9013 15.6584 16.368L18.1544 19.312C16.405 21.36 14.1544 22.384 11.4024 22.384ZM21.3234 22V1.136H26.0274V9.168H33.2274V1.136H37.9634V22H33.2274V13.296H26.0274V22H21.3234ZM47.7819 11.44L47.2699 13.36H51.7179L51.2379 11.44C50.9605 10.3947 50.6725 9.28533 50.3739 8.112C50.0965 6.93867 49.8192 5.808 49.5419 4.72H49.4139C49.1579 5.82933 48.8912 6.97067 48.6139 8.144C48.3579 9.296 48.0805 10.3947 47.7819 11.44ZM40.2299 22L46.7579 1.136H52.4219L58.9499 22H53.9579L52.6779 17.04H46.3099L45.0299 22H40.2299ZM61.2296 22V1.136H68.7496C70.2216 1.136 71.5656 1.33867 72.7816 1.744C73.9976 2.128 74.9683 2.78933 75.6936 3.728C76.419 4.66667 76.7816 5.968 76.7816 7.632C76.7816 9.168 76.4403 10.4373 75.7576 11.44C75.0963 12.4213 74.2003 13.1573 73.0696 13.648L77.8056 22H72.5256L68.5256 14.48H65.9336V22H61.2296ZM65.9336 10.736H68.3656C69.603 10.736 70.5416 10.48 71.1816 9.968C71.843 9.43467 72.1736 8.656 72.1736 7.632C72.1736 6.608 71.843 5.89333 71.1816 5.488C70.5416 5.08267 69.603 4.88 68.3656 4.88H65.9336V10.736ZM80.8546 22V1.136H86.0066L89.3666 10.416C89.58 11.0133 89.7826 11.6427 89.9746 12.304C90.1666 12.9653 90.3693 13.616 90.5826 14.256H90.7106C90.924 13.616 91.116 12.9653 91.2866 12.304C91.4786 11.6427 91.6813 11.0133 91.8946 10.416L95.1906 1.136H100.311V22H96.0226V14.352C96.0226 13.6693 96.0546 12.912 96.1186 12.08C96.204 11.2267 96.2893 10.3733 96.3746 9.52C96.4813 8.66667 96.5666 7.90933 96.6306 7.248H96.5026L94.8066 12.208L91.8306 20.176H89.2386L86.2626 12.208L84.5986 7.248H84.4706C84.556 7.90933 84.6413 8.66667 84.7266 9.52C84.812 10.3733 84.8866 11.2267 84.9506 12.08C85.036 12.912 85.0786 13.6693 85.0786 14.352V22H80.8546Z" fill="#E63B1D"/>
</svg>
